<svg width="137" height="132" viewBox="0 0 137 132" fill="none" xmlns="http://www.w3.org/2000/svg">
<path d="M134.116 59.3677L75.35 2.77744C73.5474 1.04154 71.0237 0 68.5 0C65.9763 0 63.4526 1.04154 61.65 2.77744L49.0316 14.9287L63.8132 29.1631C65.2553 28.4687 66.6974 28.1216 68.5 28.1216C74.629 28.1216 79.3158 32.6349 79.3158 38.5369C79.3158 40.2728 78.9553 41.6616 78.2342 43.0503L92.6553 56.9375C94.0974 56.2431 95.5395 55.8959 97.3421 55.8959C103.471 55.8959 108.158 60.4093 108.158 66.3113C108.158 72.2134 103.471 76.7267 97.3421 76.7267C91.2132 76.7267 86.5263 72.2134 86.5263 66.3113C86.5263 64.5754 86.8868 63.1867 87.6079 61.798L73.1868 47.9108C72.8263 47.9108 72.4658 48.258 72.1053 48.258V84.3647C76.4316 85.7534 79.3158 89.5723 79.3158 94.0857C79.3158 99.9877 74.629 104.501 68.5 104.501C62.3711 104.501 57.6842 99.9877 57.6842 94.0857C57.6842 89.5723 60.5684 85.7534 64.8947 84.3647V47.9108C60.5684 46.5221 57.6842 42.7031 57.6842 38.1898C57.6842 36.4539 58.0447 35.0651 58.7658 33.6764L43.9842 19.4421L2.88421 59.3677C1.08158 61.1036 0 63.5339 0 65.9641C0 68.3944 1.08158 70.8246 2.88421 72.5605L61.65 129.151C63.4526 130.887 65.9763 131.928 68.5 131.928C71.0237 131.928 73.5474 130.887 75.35 129.151L134.116 72.5605C135.918 70.8246 137 68.3944 137 65.9641C137 63.5339 135.918 61.1036 134.116 59.3677Z" fill="#F4511E"/>
</svg>
